<?xml version="1.0" standalone="no"?>
<!DOCTYPE svg PUBLIC "-//W3C//DTD SVG 20010904//EN"
 "http://www.w3.org/TR/2001/REC-SVG-20010904/DTD/svg10.dtd">
<svg version="1.0" xmlns="http://www.w3.org/2000/svg"
 width="400.000000pt" height="400.000000pt" viewBox="0 0 400.000000 400.000000"
 preserveAspectRatio="xMidYMid meet">
<metadata>
Created by potrace 1.14, written by Peter Selinger 2001-2017
</metadata>
<g transform="translate(0.000000,400.000000) scale(0.100000,-0.100000)"
fill="#000000" stroke="none">
<path d="M0 2000 l0 -2000 2000 0 2000 0 0 2000 0 2000 -2000 0 -2000 0 0
-2000z m2222 1701 c345 -60 537 -169 624 -357 23 -48 53 -215 54 -291 l0 -33
-20 20 c-11 11 -20 23 -20 26 0 8 -165 174 -173 174 -4 0 -23 18 -43 40 -20
22 -64 60 -98 84 -33 24 -80 65 -104 90 -23 25 -47 46 -52 46 -6 0 -10 4 -10
9 0 4 -37 35 -81 67 -45 32 -96 71 -113 85 -17 15 -46 30 -63 33 -34 8 -55 26
-30 26 8 0 66 -9 129 -19z m-1072 -806 c41 -9 87 -22 102 -27 15 -6 31 -10 35
-11 4 0 24 -7 43 -15 19 -8 46 -16 60 -18 48 -5 112 -35 187 -87 41 -28 86
-58 99 -65 13 -7 26 -23 29 -35 2 -12 9 -49 16 -82 58 -305 238 -459 449 -385
l55 19 28 -32 c45 -52 71 -108 56 -118 -36 -22 -161 -43 -254 -42 -158 2 -295
54 -424 162 l-48 40 -12 -25 c-38 -85 21 -187 142 -245 92 -43 180 -54 322
-40 128 13 231 5 331 -24 48 -14 52 -18 69 -62 41 -113 87 -228 110 -275 14
-29 25 -58 25 -65 0 -7 4 -21 9 -31 5 -9 15 -37 22 -62 7 -25 21 -61 31 -80
10 -19 34 -78 54 -130 20 -52 69 -163 110 -246 41 -83 74 -160 74 -170 0 -11
4 -24 9 -30 5 -5 12 -34 16 -64 6 -52 4 -61 -40 -147 -111 -222 -307 -332
-570 -320 -199 9 -338 92 -438 262 -22 39 -54 87 -70 108 -29 38 -106 97 -126
97 -8 0 -11 -75 -11 -235 l0 -235 -365 0 -365 0 0 1368 c0 753 2 1371 5 1373
8 8 158 -8 235 -26z"/>
<path d="M1533 1701 c-45 -9 -84 -19 -87 -22 -3 -3 28 -35 69 -72 87 -80 182
-202 225 -291 17 -36 44 -118 61 -183 58 -220 120 -345 214 -431 85 -78 164
-98 264 -65 119 38 166 117 165 273 -1 124 -29 234 -98 375 -48 97 -64 120
-133 186 -139 132 -263 204 -406 233 -96 20 -169 19 -274 -3z"/>
</g>
</svg>
